<?xml version="1.0" encoding="UTF-8" standalone="no"?>
<svg width="20px" height="20px" viewBox="0 0 20 20" version="1.1" xmlns="http://www.w3.org/2000/svg" xmlns:xlink="http://www.w3.org/1999/xlink">
    <!-- Generator: Sketch 3.7 (28169) - http://www.bohemiancoding.com/sketch -->
    <title>logo-mini</title>
    <desc>Created with Sketch.</desc>
    <defs></defs>
    <g id="Symbols" stroke="none" stroke-width="1" fill="none" fill-rule="evenodd">
        <g id="nav" transform="translate(-10.000000, -10.000000)" fill="#22DDB8">
            <g id="logo">
                <g id="logo-mini" transform="translate(10.000000, 10.000000)">
                    <path d="M7.960199,12.3 L7.960199,10.3 L5.97014925,10.3 L5.97014925,1.9 C5.97014925,1.9 7.79854752,1.89999985 10.0497512,1.9 C12.8358209,1.90000019 18.0099502,4.3 18.0099502,10 C18.0099502,15.7 12.8358209,18 10.0497512,18 L3.9800995,18 L3.9800995,20 C3.9800995,20 8.8075105,20 10.0497512,20 C15.5451219,20 20,15.8 20,10 C20,4.2 15.5451219,0 10.0497512,0 L3.9800995,0 L3.9800995,12.3 L7.960199,12.3 Z" id="Oval-31"></path>
                    <path d="M0,16.2 L0,3.8 L1.99004975,3.8 L1.99004975,14.1837398 L8.15920398,14.1837398 L10.0497512,14.1837398 C12.3337089,14.1281679 14.1771811,12.2573576 14.2288557,9.9495935 C14.1771811,7.6418347 12.3337089,5.87183211 10.0497512,5.81626016 L7.960199,5.81626016 L7.960199,3.8 L10.0497512,3.8 C13.4063684,3.8 16.119403,6.55326798 16.119403,9.9495935 C16.119403,13.3459243 13.4063684,16.0991923 10.0497512,16.2 L8.15920398,16.2 L0,16.2 Z" id="Combined-Shape"></path>
                </g>
            </g>
        </g>
    </g>
</svg>