<?xml version="1.0" encoding="utf-8"?>
<!-- Generator: Adobe Illustrator 19.0.1, SVG Export Plug-In . SVG Version: 6.00 Build 0)  -->
<!DOCTYPE svg PUBLIC "-//W3C//DTD SVG 1.1//EN" "http://www.w3.org/Graphics/SVG/1.1/DTD/svg11.dtd">
<svg version="1.1" id="图层_1" xmlns="http://www.w3.org/2000/svg" xmlns:xlink="http://www.w3.org/1999/xlink" x="0px" y="0px"
	 viewBox="0 0 128 36" enable-background="new 0 0 128 36" xml:space="preserve">
<g>
	<g>
		<defs>
			<path id="SVGID_8_" d="M14.243,21.958v-3.405h-3.405v-14.3c0,0,3.128,0,6.98,0c4.767,0,13.619,4.086,13.619,13.789
				s-8.852,13.619-13.619,13.619H7.093v3.405c0,0,8.6,0,10.725,0c9.402,0,17.024-7.15,17.024-17.024S27.22,1.018,17.818,1.018H7.433
				v20.94H14.243L14.243,21.958z M14.243,21.958"/>
		</defs>
		<use xlink:href="#SVGID_8_"  overflow="visible" fill-rule="evenodd" clip-rule="evenodd" fill="#1DDBB7"/>
		<clipPath id="SVGID_5_">
			<use xlink:href="#SVGID_8_"  overflow="visible"/>
		</clipPath>
	</g>
	<g>
		<defs>
			<path id="SVGID_7_" d="M0.624,28.597V7.487h3.405v17.677h10.555h3.235c3.908-0.095,7.062-3.279,7.15-7.208
				c-0.088-3.929-3.242-6.942-7.15-7.037h-3.575V7.487h3.575c5.743,0,10.385,4.687,10.385,10.469
				c0,5.782-4.642,10.469-10.385,10.641h-3.235H0.624L0.624,28.597z M0.624,28.597"/>
		</defs>
		<use xlink:href="#SVGID_7_"  overflow="visible" fill-rule="evenodd" clip-rule="evenodd" fill="#1DDBB7"/>
		<clipPath id="SVGID_10_">
			<use xlink:href="#SVGID_7_"  overflow="visible"/>
		</clipPath>
	</g>
	<g>
		<defs>
			<path id="SVGID_6_" d="M110.125,9.185l0.068,1.154h1.359V7.828h2.582v2.511h1.495l0.068-1.154h1.971l-0.068,1.154v2.579h-3.466
				v5.09h-2.582v-5.09h-3.737l0.272-2.579l-0.068-1.154H110.125L110.125,9.185z M118.347,13.054v-2.511h0.408
				c0.624-0.05,0.695-0.262,0.747-0.679l0.136-1.832h2.786l-0.068,1.222h5.096v2.579h-5.572l-0.272,0.543
				c-0.267,0.488-0.612,0.674-1.631,0.679H118.347L118.347,13.054z M121.541,14.14l1.291,3.597l1.427-4.615h2.922l-2.922,9.095
				l1.35,3.315c0.122,0.284,0.239,0.282,0.446,0.282h1.33v2.104h-2.582c-0.727-0.065-0.915-0.308-1.223-0.882l-0.612-1.504
				l-0.544,1.504c-0.129,0.383-0.555,0.933-1.291,0.882h-2.718v-1.968h1.291c0.246,0,0.365-0.418,0.365-0.418l1.334-3.654
				l-2.786-7.737H121.541L121.541,14.14z M107.95,17.737v-1.765h0.815l0.34-2.24h2.107c0,0-0.408,2.647-0.544,2.986
				c-0.136,0.339-0.34,0.95-0.951,1.018H107.95L107.95,17.737z M117.735,17.737v-1.765h-0.815l-0.34-2.24h-2.107
				c0,0,0.408,2.647,0.544,2.986c0.136,0.339,0.34,0.95,0.951,1.018H117.735L117.735,17.737z M111.008,25.745l-2.786-1.832v-2.036
				l0,0h-0.408v-2.443l2.854-0.882v0.882h7.271v2.443h-0.747v1.697l-2.174,1.9l0.476,0.339c0.254,0.138,0.456,0.196,0.612,0.204
				h1.835v1.9h-2.786c-0.445-0.058-0.82-0.173-1.087-0.339l-1.087-0.679l-1.019,0.679c-0.453,0.224-0.886,0.339-1.291,0.339h-2.854
				v-1.9c0,0,1.887,0,2.242,0C110.413,26.017,111.008,25.745,111.008,25.745z M53.116,17.95l-1.76-5.355h1.873l0.824,2.507
				L53.116,17.95 M51.053,24.225l0.038,0.116h-1.873l-1.079-3.284l0.936-2.848L51.053,24.225 M54.052,20.798l1.165,3.543h1.873
				l-2.101-6.391L54.052,20.798L54.052,20.798z M47.203,18.209l-1.845-5.614h1.873l0.909,2.766L47.203,18.209L47.203,18.209z
				 M59.524,28.255l-0.002,0.002h-3.805v-2.511h1.835c0.3,0,0.544-0.243,0.544-0.543v-14.66H44.37v17.714h-2.718V7.828h19.162
				v19.004l-0.002,0.002c0.001,0.022,0.002,0.044,0.002,0.066C60.814,27.625,60.243,28.219,59.524,28.255L59.524,28.255z
				 M113.047,24.184l1.767-1.357v-0.95h-4.077v0.747L113.047,24.184L113.047,24.184z M89.875,19.569v2.308h11.96v-2.308H89.875
				L89.875,19.569z M89.875,17.669v-1.921h11.96v1.921H89.875L89.875,17.669z M89.875,23.777v4.479h-2.718V17.194h-1.631v-2.783
				h0.951c0.464-0.004,0.782-0.177,0.951-0.543L88.38,11.9h-2.769V9.389h3.992l0.747-1.561h3.737l-0.68,1.561h11.96V11.9H92.117
				l-0.83,1.704c5.505,0.016,13.265,0.037,13.265,0.037V26.78l-0.001,0.001c0.001,0.017,0.001,0.033,0.001,0.05
				c0,0.722-0.565,1.313-1.277,1.355l-0.002,0.002h-3.817v-2.515h1.769c0.022,0.003,0.043,0.004,0.066,0.004
				c0.3,0,0.544-0.243,0.544-0.543c0-0.002,0-0.003,0-0.005l0-1.353H89.875L89.875,23.777z M79.754,25.741l-0.004,0.005h-2.786
				v2.511h4.689l0.002-0.002c0.718-0.036,1.289-0.629,1.289-1.356v-7.33H68.062l1.155-1.629h11.552l0.007-0.006
				c0.043,0.004,0.086,0.006,0.129,0.006c0.751,0,1.359-0.608,1.359-1.357V7.828H64.121v10.045h1.427l-2.242,3.122v1.018h16.92v3.19
				C80.226,25.478,80.02,25.705,79.754,25.741L79.754,25.741z M51.091,12.594L47.23,24.341h-1.873l3.861-11.747H51.091
				L51.091,12.594z M56.919,12.594l-3.861,11.747h-1.873l3.861-11.747H56.919L56.919,12.594z M73.838,22.963h3.601l-3.398,4.072
				c-0.34,0.456-0.828,0.679-1.495,0.679h-2.99v-1.629h1.971L73.838,22.963L73.838,22.963z M67.519,22.963h3.601l-3.398,4.072
				c-0.34,0.456-0.828,0.679-1.495,0.679h-2.99v-1.629h1.971L67.519,22.963L67.519,22.963z M66.839,10.067v1.9h12.775v-1.9H66.839
				L66.839,10.067z M66.839,14.004v1.9h12.775v-1.9H66.839L66.839,14.004z M66.839,14.004"/>
		</defs>
		<use xlink:href="#SVGID_6_"  overflow="visible" fill-rule="evenodd" clip-rule="evenodd" fill="#FFFFFF"/>
		<clipPath id="SVGID_12_">
			<use xlink:href="#SVGID_6_"  overflow="visible"/>
		</clipPath>
	</g>
</g>
</svg>
